<?xml version="1.0" encoding="utf-8"?>
<!-- Generator: Adobe Illustrator 24.1.2, SVG Export Plug-In . SVG Version: 6.00 Build 0)  -->
<svg version="1.1" id="Warstwa_1" xmlns="http://www.w3.org/2000/svg" xmlns:xlink="http://www.w3.org/1999/xlink" x="0px" y="0px"
	 viewBox="0 0 12 14" style="enable-background:new 0 0 12 14;" xml:space="preserve">
<style type="text/css">
	.st0{fill:#10141E;}
</style>
<path class="st0" d="M1.1,14c-0.1,0-0.3,0-0.4-0.1c-0.2-0.1-0.4-0.2-0.5-0.4C0.1,13.4,0,13.2,0,13V1c0-0.2,0.1-0.4,0.2-0.6
	s0.3-0.3,0.5-0.4C0.8,0,0.9,0,1.1,0h9.6c0.1,0,0.3,0,0.4,0.1l0,0c0.2,0.1,0.4,0.2,0.5,0.4c0.1,0.2,0.2,0.4,0.2,0.6V13
	c0,0.2-0.1,0.4-0.2,0.6c-0.1,0.2-0.3,0.3-0.5,0.4c-0.4,0.2-0.8,0.1-1.1-0.2l-4-3.9l-4,3.9C1.6,13.9,1.3,14,1.1,14z M5.8,7.7l4.3,4.2
	V1.5H1.5v10.4L5.8,7.7z"/>
</svg>
